<svg xmlns="http://www.w3.org/2000/svg" viewBox="0 0 357.4 357.51">
  <defs>
    <style>
      .cls-1, .cls-3 {
        fill: #FFCD00;
      }

      .cls-1 {
        opacity: 0.13;
      }

      .cls-2 {
        fill: #FFCD00;
      }

      .cls-4 {
        fill: #FFCD00;
      }
    </style>
  </defs>
  <g id="Glow">
    <polygon class="cls-1" points="162.87 233.17 179.02 209.09 194.48 232.95 179.16 258.55 162.87 233.17"/>
  </g>
  <g id="Logo">
    <g>
      <path class="cls-2" d="M378.24,199.71c0,99-80,178.6-179.39,178.52-98.75-.08-178.07-80.22-178-179.81.06-97.62,80.51-178.31,180-177.7C298.58,21.32,378.26,101.29,378.24,199.71Zm-344.67,0c.12,91,74.86,165.61,165.91,165.58s165.8-74.68,165.82-165.77c0-91.44-74.91-166.2-166.37-166C108.1,33.82,33.45,108.83,33.57,199.75Z" transform="translate(-20.84 -20.72)"/>
      <path class="cls-3" d="M279.35,253.21H224.27c-7.44-12.3-15.45-25.57-24.47-40.48l-25,40.94h-55c26.53-46.29,53.52-94.6,79.35-139.67m-26,133.73c8.27-13.95,24.25-40.49,24.25-40.49L197,128s-34.88,61.15-51.6,90.3Zm81-29.33c-17.05-29.7-52.5-90.4-52.5-90.4l.61,79.22s15.86,26.85,24,40.47ZM127.84,249h39.92L143,222.7Zm128.65-26.37c-8.18,9.37-16.66,16.55-24.37,26.39h39.33Z" transform="translate(-20.84 -20.72)"/>
      <path class="cls-4" d="M199.89,224.87,219,254.18l-19,28.73-19-28.8ZM188,251.34h23.78c-4.22-6.48-7.62-11.7-11.79-18.12Zm12,23.47,11.62-17.89H188.24Z" transform="translate(-20.84 -20.72)"/>
    </g>
  </g>
</svg>